<svg xmlns="http://www.w3.org/2000/svg" width="800" height="400" viewBox="0 0 800 400">
  <rect width="800" height="400" fill="#0A2647"/>
  <g transform="translate(100, 100)" fill="#D4AF37">
    <path d="M64 32C28.7 32 0 60.7 0 96V416c0 35.3 28.7 64 64 64H448c35.3 0 64-28.7 64-64V96c0-35.3-28.7-64-64-64H64zM325.8 139.7l14.4 14.4c15.6 15.6 15.6 40.9 0 56.6l-21.4 21.4-70.9-71 21.4-21.4c15.6-15.6 40.9-15.6 56.6 0zM200.4 208.9l70.9 71L137.7 413.4c-4.1 4.1-9.2 7-14.9 8.4l-60.1 15c-5.5 1.4-11.2-.2-15.2-4.2s-5.6-9.7-4.2-15.2l15-60.1c1.4-5.6 4.3-10.8 8.4-14.9L200.4 208.9z" transform="scale(0.5)"/>
  </g>
  <g transform="translate(400, 100)" fill="#D4AF37">
    <path d="M0 64C0 28.7 28.7 0 64 0H320c35.3 0 64 28.7 64 64V256c0 35.3-28.7 64-64 64H64c-35.3 0-64-28.7-64-64V64zM256 448c0 17.7-14.3 32-32 32s-32-14.3-32-32s14.3-32 32-32s32 14.3 32 32zM384 448c0 17.7-14.3 32-32 32s-32-14.3-32-32s14.3-32 32-32s32 14.3 32 32z" transform="scale(0.5)"/>
  </g>
  <g transform="translate(100, 300)" fill="#D4AF37">
    <path d="M112 112c0-26.5 21.5-48 48-48s48 21.5 48 48V276.5c0 17.3 7.1 31.9 15.3 42.5C233.8 332.6 240 349.5 240 368c0 44.2-35.8 80-80 80s-80-35.8-80-80c0-18.5 6.2-35.4 16.7-48.9C105.1 308.4 112 293.8 112 276.5V112zM160 0C98.1 0 48 50.2 48 112V276.5c0 .1-.1 .3-.2 .6c-.2 .6-.8 1.6-1.7 2.8C27.2 304.2 16 334.8 16 368c0 79.5 64.5 144 144 144s144-64.5 144-144c0-33.2-11.2-63.8-30.1-88.1c-.9-1.2-1.5-2.2-1.7-2.8c-.1-.3-.2-.5-.2-.6V112C272 50.2 221.9 0 160 0zm0 416c26.5 0 48-21.5 48-48c0-20.9-13.4-38.7-32-45.3V112c0-8.8-7.2-16-16-16s-16 7.2-16 16V322.7c-18.6 6.6-32 24.4-32 45.3c0 26.5 21.5 48 48 48z" transform="scale(0.5)"/>
  </g>
  <g transform="translate(400, 300)" fill="#D4AF37">
    <path d="M256 512A256 256 0 1 0 256 0a256 256 0 1 0 0 512zM216 336h24V272H216c-13.3 0-24-10.7-24-24s10.7-24 24-24h48c13.3 0 24 10.7 24 24v88h8c13.3 0 24 10.7 24 24s-10.7 24-24 24H216c-13.3 0-24-10.7-24-24s10.7-24 24-24zm40-208a32 32 0 1 1 0 64 32 32 0 1 1 0-64z" transform="scale(0.5)"/>
  </g>
  <text x="400" y="50" font-family="Arial, sans-serif" font-size="24" fill="#D4AF37" text-anchor="middle">Navigating Minnesota Property Tax Appeals</text>
  <text x="400" y="380" font-family="Arial, sans-serif" font-size="20" fill="#D4AF37" text-anchor="middle">Expert Insights and FAQs</text>
</svg>