<svg xmlns="http://www.w3.org/2000/svg" xmlns:xlink="http://www.w3.org/1999/xlink" width="1024" zoomAndPan="magnify" viewBox="0 0 768 374.999991" height="500" preserveAspectRatio="xMidYMid meet" version="1.0"><defs><g/><clipPath id="7495f67d3e"><path d="M 309 53 L 417 53 L 417 187.5 L 309 187.5 Z M 309 53 " clip-rule="nonzero"/></clipPath><clipPath id="30c08528d3"><path d="M 309 37.5 L 417 37.5 L 417 49 L 309 49 Z M 309 37.5 " clip-rule="nonzero"/></clipPath><clipPath id="dad222f329"><path d="M 421 80 L 459 80 L 459 187.5 L 421 187.5 Z M 421 80 " clip-rule="nonzero"/></clipPath></defs><rect x="-76.8" width="921.6" fill="#ffffff" y="-37.499999" height="449.999989" fill-opacity="1"/><rect x="-76.8" width="921.6" fill="#f4f5f7" y="-37.499999" height="449.999989" fill-opacity="1"/><g clip-path="url(#7495f67d3e)"><path fill="#1a4578" d="M 309 53.570312 L 309 187.5 L 335.785156 187.5 L 335.785156 163.394531 L 359.894531 163.394531 L 359.894531 187.5 L 365.25 187.5 L 365.25 163.394531 L 389.355469 163.394531 L 389.355469 187.5 L 416.144531 187.5 L 416.144531 53.570312 Z M 354.535156 64.285156 L 370.605469 64.285156 L 370.605469 80.355469 L 354.535156 80.355469 Z M 354.535156 91.070312 L 370.605469 91.070312 L 370.605469 107.144531 L 354.535156 107.144531 Z M 322.394531 64.285156 L 338.464844 64.285156 L 338.464844 80.355469 L 322.394531 80.355469 Z M 322.394531 91.070312 L 338.464844 91.070312 L 338.464844 107.144531 L 322.394531 107.144531 Z M 322.394531 117.855469 L 338.464844 117.855469 L 338.464844 133.929688 L 322.394531 133.929688 Z M 359.894531 158.035156 L 330.429688 158.035156 L 330.429688 150 L 359.894531 150 Z M 354.535156 133.929688 L 354.535156 117.855469 L 370.605469 117.855469 L 370.605469 133.929688 Z M 394.714844 158.035156 L 365.25 158.035156 L 365.25 150 L 394.714844 150 Z M 402.75 133.929688 L 386.679688 133.929688 L 386.679688 117.855469 L 402.75 117.855469 Z M 402.75 107.144531 L 386.679688 107.144531 L 386.679688 91.070312 L 402.75 91.070312 Z M 402.75 80.355469 L 386.679688 80.355469 L 386.679688 64.285156 L 402.75 64.285156 Z M 402.75 80.355469 " fill-opacity="1" fill-rule="nonzero"/></g><g clip-path="url(#30c08528d3)"><path fill="#1a4578" d="M 309 37.5 L 416.144531 37.5 L 416.144531 48.214844 L 309 48.214844 Z M 309 37.5 " fill-opacity="1" fill-rule="nonzero"/></g><path fill="#1a4578" d="M 421.5 64.285156 L 459 64.285156 L 459 75 L 421.5 75 Z M 421.5 64.285156 " fill-opacity="1" fill-rule="nonzero"/><g clip-path="url(#dad222f329)"><path fill="#1a4578" d="M 421.5 80.355469 L 421.5 187.5 L 459 187.5 L 459 80.355469 Z M 448.285156 160.714844 L 432.214844 160.714844 L 432.214844 144.644531 L 448.285156 144.644531 Z M 448.285156 133.929688 L 432.214844 133.929688 L 432.214844 117.855469 L 448.285156 117.855469 Z M 448.285156 107.144531 L 432.214844 107.144531 L 432.214844 91.070312 L 448.285156 91.070312 Z M 448.285156 107.144531 " fill-opacity="1" fill-rule="nonzero"/></g><g fill="#1a4578" fill-opacity="1"><g transform="translate(254.780179, 286.185684)"><g><path d="M 22.078125 0 L 18.515625 -9.171875 L 6.9375 -9.171875 L 3.40625 0 L 0 0 L 11.3125 -29.015625 L 14.328125 -29.015625 L 25.5625 0 Z M 17.515625 -12.15625 L 14.140625 -21.265625 C 14.054688 -21.503906 13.925781 -21.894531 13.75 -22.4375 C 13.570312 -22.976562 13.390625 -23.535156 13.203125 -24.109375 C 13.015625 -24.691406 12.863281 -25.160156 12.75 -25.515625 C 12.613281 -24.972656 12.46875 -24.4375 12.3125 -23.90625 C 12.164062 -23.375 12.019531 -22.878906 11.875 -22.421875 C 11.726562 -21.972656 11.601562 -21.585938 11.5 -21.265625 L 8.0625 -12.15625 Z M 17.515625 -12.15625 "/></g></g></g><g fill="#1a4578" fill-opacity="1"><g transform="translate(280.374488, 286.185684)"><g><path d="M 11.5 -28.90625 C 15.226562 -28.90625 17.953125 -28.175781 19.671875 -26.71875 C 21.398438 -25.257812 22.265625 -23.171875 22.265625 -20.453125 C 22.265625 -19.234375 22.0625 -18.070312 21.65625 -16.96875 C 21.25 -15.863281 20.597656 -14.894531 19.703125 -14.0625 C 18.804688 -13.226562 17.628906 -12.566406 16.171875 -12.078125 C 14.722656 -11.597656 12.941406 -11.359375 10.828125 -11.359375 L 7.3125 -11.359375 L 7.3125 0 L 3.953125 0 L 3.953125 -28.90625 Z M 11.1875 -26.03125 L 7.3125 -26.03125 L 7.3125 -14.25 L 10.453125 -14.25 C 12.296875 -14.25 13.832031 -14.445312 15.0625 -14.84375 C 16.300781 -15.238281 17.226562 -15.878906 17.84375 -16.765625 C 18.46875 -17.660156 18.78125 -18.847656 18.78125 -20.328125 C 18.78125 -22.242188 18.164062 -23.671875 16.9375 -24.609375 C 15.71875 -25.554688 13.800781 -26.03125 11.1875 -26.03125 Z M 11.1875 -26.03125 "/></g></g></g><g fill="#1a4578" fill-opacity="1"><g transform="translate(304.723669, 286.185684)"><g><path d="M 22.078125 0 L 18.515625 -9.171875 L 6.9375 -9.171875 L 3.40625 0 L 0 0 L 11.3125 -29.015625 L 14.328125 -29.015625 L 25.5625 0 Z M 17.515625 -12.15625 L 14.140625 -21.265625 C 14.054688 -21.503906 13.925781 -21.894531 13.75 -22.4375 C 13.570312 -22.976562 13.390625 -23.535156 13.203125 -24.109375 C 13.015625 -24.691406 12.863281 -25.160156 12.75 -25.515625 C 12.613281 -24.972656 12.46875 -24.4375 12.3125 -23.90625 C 12.164062 -23.375 12.019531 -22.878906 11.875 -22.421875 C 11.726562 -21.972656 11.601562 -21.585938 11.5 -21.265625 L 8.0625 -12.15625 Z M 17.515625 -12.15625 "/></g></g></g><g fill="#1a4578" fill-opacity="1"><g transform="translate(330.317978, 286.185684)"><g><path d="M 11.765625 -28.90625 C 14.128906 -28.90625 16.085938 -28.609375 17.640625 -28.015625 C 19.191406 -27.429688 20.347656 -26.539062 21.109375 -25.34375 C 21.878906 -24.144531 22.265625 -22.613281 22.265625 -20.75 C 22.265625 -19.226562 21.984375 -17.957031 21.421875 -16.9375 C 20.867188 -15.914062 20.144531 -15.085938 19.25 -14.453125 C 18.351562 -13.816406 17.398438 -13.328125 16.390625 -12.984375 L 24.3125 0 L 20.40625 0 L 13.328125 -12.0625 L 7.3125 -12.0625 L 7.3125 0 L 3.953125 0 L 3.953125 -28.90625 Z M 11.5625 -26 L 7.3125 -26 L 7.3125 -14.90625 L 11.90625 -14.90625 C 14.257812 -14.90625 15.992188 -15.382812 17.109375 -16.34375 C 18.222656 -17.3125 18.78125 -18.726562 18.78125 -20.59375 C 18.78125 -22.5625 18.1875 -23.953125 17 -24.765625 C 15.820312 -25.585938 14.007812 -26 11.5625 -26 Z M 11.5625 -26 "/></g></g></g><g fill="#1a4578" fill-opacity="1"><g transform="translate(355.299605, 286.185684)"><g><path d="M 12.828125 0 L 9.453125 0 L 9.453125 -25.9375 L 0.359375 -25.9375 L 0.359375 -28.90625 L 21.890625 -28.90625 L 21.890625 -25.9375 L 12.828125 -25.9375 Z M 12.828125 0 "/></g></g></g><g fill="#1a4578" fill-opacity="1"><g transform="translate(377.593335, 286.185684)"><g><path d="M 16.671875 0 L 6.953125 -25.578125 L 6.796875 -25.578125 C 6.847656 -25.035156 6.894531 -24.375 6.9375 -23.59375 C 6.976562 -22.820312 7.007812 -21.976562 7.03125 -21.0625 C 7.0625 -20.144531 7.078125 -19.210938 7.078125 -18.265625 L 7.078125 0 L 3.953125 0 L 3.953125 -28.90625 L 8.9375 -28.90625 L 18.09375 -4.859375 L 18.21875 -4.859375 L 27.515625 -28.90625 L 32.453125 -28.90625 L 32.453125 0 L 29.140625 0 L 29.140625 -18.5 C 29.140625 -19.351562 29.148438 -20.210938 29.171875 -21.078125 C 29.203125 -21.941406 29.234375 -22.757812 29.265625 -23.53125 C 29.304688 -24.300781 29.347656 -24.972656 29.390625 -25.546875 L 29.234375 -25.546875 L 19.40625 0 Z M 16.671875 0 "/></g></g></g><g fill="#1a4578" fill-opacity="1"><g transform="translate(413.998523, 286.185684)"><g><path d="M 20.046875 0 L 3.953125 0 L 3.953125 -28.90625 L 20.046875 -28.90625 L 20.046875 -25.9375 L 7.3125 -25.9375 L 7.3125 -16.578125 L 19.3125 -16.578125 L 19.3125 -13.65625 L 7.3125 -13.65625 L 7.3125 -2.96875 L 20.046875 -2.96875 Z M 20.046875 0 "/></g></g></g><g fill="#1a4578" fill-opacity="1"><g transform="translate(436.489892, 286.185684)"><g><path d="M 26.546875 0 L 22.671875 0 L 6.921875 -24.28125 L 6.765625 -24.28125 C 6.796875 -23.632812 6.835938 -22.894531 6.890625 -22.0625 C 6.953125 -21.238281 7 -20.363281 7.03125 -19.4375 C 7.0625 -18.507812 7.078125 -17.566406 7.078125 -16.609375 L 7.078125 0 L 3.953125 0 L 3.953125 -28.90625 L 7.8125 -28.90625 L 23.5 -4.703125 L 23.640625 -4.703125 C 23.617188 -5.160156 23.585938 -5.816406 23.546875 -6.671875 C 23.503906 -7.523438 23.46875 -8.441406 23.4375 -9.421875 C 23.40625 -10.398438 23.390625 -11.3125 23.390625 -12.15625 L 23.390625 -28.90625 L 26.546875 -28.90625 Z M 26.546875 0 "/></g></g></g><g fill="#1a4578" fill-opacity="1"><g transform="translate(466.965896, 286.185684)"><g><path d="M 12.828125 0 L 9.453125 0 L 9.453125 -25.9375 L 0.359375 -25.9375 L 0.359375 -28.90625 L 21.890625 -28.90625 L 21.890625 -25.9375 L 12.828125 -25.9375 Z M 12.828125 0 "/></g></g></g><g fill="#1a4578" fill-opacity="1"><g transform="translate(489.259626, 286.185684)"><g><path d="M 20.265625 -7.6875 C 20.265625 -5.976562 19.835938 -4.519531 18.984375 -3.3125 C 18.140625 -2.101562 16.953125 -1.179688 15.421875 -0.546875 C 13.890625 0.078125 12.085938 0.390625 10.015625 0.390625 C 8.921875 0.390625 7.882812 0.335938 6.90625 0.234375 C 5.9375 0.128906 5.039062 -0.0195312 4.21875 -0.21875 C 3.40625 -0.414062 2.691406 -0.660156 2.078125 -0.953125 L 2.078125 -4.171875 C 3.066406 -3.765625 4.269531 -3.382812 5.6875 -3.03125 C 7.113281 -2.6875 8.601562 -2.515625 10.15625 -2.515625 C 11.601562 -2.515625 12.828125 -2.707031 13.828125 -3.09375 C 14.835938 -3.476562 15.601562 -4.035156 16.125 -4.765625 C 16.644531 -5.503906 16.90625 -6.382812 16.90625 -7.40625 C 16.90625 -8.394531 16.6875 -9.222656 16.25 -9.890625 C 15.8125 -10.554688 15.085938 -11.160156 14.078125 -11.703125 C 13.078125 -12.253906 11.707031 -12.84375 9.96875 -13.46875 C 8.738281 -13.894531 7.65625 -14.367188 6.71875 -14.890625 C 5.78125 -15.410156 4.992188 -16 4.359375 -16.65625 C 3.734375 -17.320312 3.257812 -18.085938 2.9375 -18.953125 C 2.613281 -19.828125 2.453125 -20.820312 2.453125 -21.9375 C 2.453125 -23.476562 2.84375 -24.800781 3.625 -25.90625 C 4.40625 -27.007812 5.488281 -27.851562 6.875 -28.4375 C 8.269531 -29.019531 9.875 -29.3125 11.6875 -29.3125 C 13.226562 -29.3125 14.648438 -29.164062 15.953125 -28.875 C 17.265625 -28.59375 18.46875 -28.207031 19.5625 -27.71875 L 18.515625 -24.828125 C 17.472656 -25.265625 16.367188 -25.625 15.203125 -25.90625 C 14.046875 -26.195312 12.847656 -26.34375 11.609375 -26.34375 C 10.367188 -26.34375 9.320312 -26.160156 8.46875 -25.796875 C 7.625 -25.441406 6.972656 -24.929688 6.515625 -24.265625 C 6.066406 -23.609375 5.84375 -22.828125 5.84375 -21.921875 C 5.84375 -20.910156 6.054688 -20.066406 6.484375 -19.390625 C 6.921875 -18.722656 7.609375 -18.128906 8.546875 -17.609375 C 9.492188 -17.085938 10.742188 -16.539062 12.296875 -15.96875 C 13.992188 -15.351562 15.4375 -14.695312 16.625 -14 C 17.8125 -13.3125 18.710938 -12.46875 19.328125 -11.46875 C 19.953125 -10.476562 20.265625 -9.21875 20.265625 -7.6875 Z M 20.265625 -7.6875 "/></g></g></g></svg>