<svg xmlns="http://www.w3.org/2000/svg" xmlns:xlink="http://www.w3.org/1999/xlink" width="1024" zoomAndPan="magnify" viewBox="0 0 768 374.999991" height="500" preserveAspectRatio="xMidYMid meet" version="1.0"><defs><g/><clipPath id="dc215857c3"><path d="M 354 37.949219 L 417 37.949219 L 417 186.964844 L 354 186.964844 Z M 354 37.949219 " clip-rule="nonzero"/></clipPath></defs><rect x="-76.8" width="921.6" fill="#ffffff" y="-37.499999" height="449.999989" fill-opacity="1"/><rect x="-76.8" width="921.6" fill="#f4f5f7" y="-37.499999" height="449.999989" fill-opacity="1"/><path fill="#1a4578" d="M 454.804688 172.726562 C 454.570312 172.726562 454.382812 172.527344 454.382812 172.28125 L 454.382812 73.09375 C 454.382812 72.847656 454.183594 72.660156 453.9375 72.660156 L 421.558594 72.660156 C 421.324219 72.660156 421.125 72.847656 421.125 73.09375 L 421.125 78.765625 C 421.125 79.011719 421.324219 79.199219 421.558594 79.199219 L 450.632812 79.199219 L 450.632812 83.875 L 421.558594 83.875 C 421.324219 83.875 421.125 84.074219 421.125 84.308594 L 421.125 87.179688 C 421.125 87.425781 421.324219 87.613281 421.558594 87.613281 L 450.632812 87.613281 L 450.632812 92.289062 L 421.558594 92.289062 C 421.324219 92.289062 421.125 92.488281 421.125 92.734375 L 421.125 95.59375 C 421.125 95.839844 421.324219 96.039062 421.558594 96.039062 L 450.632812 96.039062 L 450.632812 100.714844 L 421.558594 100.714844 C 421.324219 100.714844 421.125 100.902344 421.125 101.148438 L 421.125 104.019531 C 421.125 104.253906 421.324219 104.453125 421.558594 104.453125 L 450.632812 104.453125 L 450.632812 109.128906 L 421.558594 109.128906 C 421.324219 109.128906 421.125 109.328125 421.125 109.5625 L 421.125 112.433594 C 421.125 112.679688 421.324219 112.867188 421.558594 112.867188 L 450.632812 112.867188 L 450.632812 117.542969 L 421.558594 117.542969 C 421.324219 117.542969 421.125 117.742188 421.125 117.976562 L 421.125 120.847656 C 421.125 121.09375 421.324219 121.28125 421.558594 121.28125 L 450.632812 121.28125 L 450.632812 125.957031 L 421.558594 125.957031 C 421.324219 125.957031 421.125 126.15625 421.125 126.402344 L 421.125 129.261719 C 421.125 129.507812 421.324219 129.707031 421.558594 129.707031 L 450.632812 129.707031 L 450.632812 134.382812 L 421.558594 134.382812 C 421.324219 134.382812 421.125 134.570312 421.125 134.816406 L 421.125 137.6875 C 421.125 137.921875 421.324219 138.121094 421.558594 138.121094 L 450.632812 138.121094 L 450.632812 142.796875 L 421.558594 142.796875 C 421.324219 142.796875 421.125 142.996094 421.125 143.230469 L 421.125 177.695312 C 421.125 177.929688 421.324219 178.128906 421.558594 178.128906 L 458.566406 178.128906 C 458.800781 178.128906 459 177.929688 459 177.695312 L 459 173.160156 C 459 172.914062 458.800781 172.726562 458.566406 172.726562 L 454.804688 172.726562 " fill-opacity="1" fill-rule="nonzero"/><path fill="#1a4578" d="M 331.03125 91.773438 L 314.191406 91.773438 L 314.191406 74.945312 L 331.03125 74.945312 Z M 331.03125 115.46875 L 314.191406 115.46875 L 314.191406 98.628906 L 331.03125 98.628906 Z M 331.03125 139.164062 L 314.191406 139.164062 L 314.191406 122.324219 L 331.03125 122.324219 Z M 349.628906 139.597656 C 349.628906 139.351562 349.429688 139.164062 349.195312 139.164062 L 341.332031 139.164062 C 341.097656 139.164062 340.898438 138.964844 340.898438 138.71875 L 340.898438 122.324219 L 349.195312 122.324219 C 349.429688 122.324219 349.628906 122.125 349.628906 121.890625 L 349.628906 115.902344 C 349.628906 115.65625 349.429688 115.46875 349.195312 115.46875 L 341.332031 115.46875 C 341.097656 115.46875 340.898438 115.269531 340.898438 115.035156 L 340.898438 98.628906 L 349.195312 98.628906 C 349.429688 98.628906 349.628906 98.441406 349.628906 98.195312 L 349.628906 92.207031 C 349.628906 91.972656 349.429688 91.773438 349.195312 91.773438 L 341.332031 91.773438 C 341.097656 91.773438 340.898438 91.574219 340.898438 91.339844 L 340.898438 75.378906 C 340.898438 75.132812 341.097656 74.945312 341.332031 74.945312 L 349.195312 74.945312 C 349.429688 74.945312 349.628906 74.746094 349.628906 74.5 L 349.628906 68.523438 C 349.628906 68.277344 349.429688 68.078125 349.195312 68.078125 L 309.433594 68.078125 C 309.199219 68.078125 309 68.277344 309 68.523438 L 309 177.695312 C 309 177.929688 309.199219 178.128906 309.433594 178.128906 L 349.195312 178.128906 C 349.429688 178.128906 349.628906 177.929688 349.628906 177.695312 L 349.628906 139.597656 " fill-opacity="1" fill-rule="nonzero"/><g clip-path="url(#dc215857c3)"><path fill="#1a4578" d="M 407.613281 65.59375 L 399.304688 65.59375 L 399.304688 44.804688 L 407.613281 44.804688 Z M 407.613281 92.195312 L 399.304688 92.195312 L 399.304688 71.40625 L 407.613281 71.40625 Z M 407.613281 118.796875 L 399.304688 118.796875 L 399.304688 98.007812 L 407.613281 98.007812 Z M 407.613281 145.398438 L 399.304688 145.398438 L 399.304688 124.609375 L 407.613281 124.609375 Z M 395.554688 65.59375 L 387.246094 65.59375 L 387.246094 44.804688 L 395.554688 44.804688 Z M 395.554688 92.195312 L 387.246094 92.195312 L 387.246094 71.40625 L 395.554688 71.40625 Z M 395.554688 118.796875 L 387.246094 118.796875 L 387.246094 98.007812 L 395.554688 98.007812 Z M 395.554688 145.398438 L 387.246094 145.398438 L 387.246094 124.609375 L 395.554688 124.609375 Z M 383.507812 65.59375 L 375.199219 65.59375 L 375.199219 44.804688 L 383.507812 44.804688 Z M 383.507812 92.195312 L 375.199219 92.195312 L 375.199219 71.40625 L 383.507812 71.40625 Z M 383.507812 118.796875 L 375.199219 118.796875 L 375.199219 98.007812 L 383.507812 98.007812 Z M 383.507812 145.398438 L 375.199219 145.398438 L 375.199219 124.609375 L 383.507812 124.609375 Z M 371.765625 92.195312 L 363.457031 92.195312 L 363.457031 71.40625 L 371.765625 71.40625 Z M 371.449219 118.796875 L 363.140625 118.796875 L 363.140625 98.007812 L 371.449219 98.007812 Z M 371.449219 145.398438 L 363.140625 145.398438 L 363.140625 124.609375 L 371.449219 124.609375 Z M 363.140625 44.804688 L 371.449219 44.804688 L 371.449219 65.59375 L 363.140625 65.59375 Z M 355.054688 37.949219 C 354.808594 37.949219 354.621094 38.136719 354.621094 38.382812 L 354.621094 186.519531 C 354.621094 186.765625 354.808594 186.953125 355.054688 186.953125 L 376.007812 186.953125 C 376.242188 186.953125 376.441406 186.765625 376.441406 186.519531 L 376.441406 157.679688 C 376.441406 157.433594 376.628906 157.234375 376.875 157.234375 L 393.878906 157.234375 C 394.113281 157.234375 394.3125 157.433594 394.3125 157.679688 L 394.3125 186.519531 C 394.3125 186.765625 394.511719 186.953125 394.746094 186.953125 L 415.699219 186.953125 C 415.945312 186.953125 416.132812 186.765625 416.132812 186.519531 L 416.132812 38.382812 C 416.132812 38.136719 415.945312 37.949219 415.699219 37.949219 L 355.054688 37.949219 " fill-opacity="1" fill-rule="nonzero"/></g><g fill="#1a4578" fill-opacity="1"><g transform="translate(253.431789, 274.152697)"><g><path d="M 16.3125 -26.34375 C 14.71875 -26.34375 13.28125 -26.066406 12 -25.515625 C 10.726562 -24.972656 9.648438 -24.1875 8.765625 -23.15625 C 7.878906 -22.125 7.195312 -20.875 6.71875 -19.40625 C 6.25 -17.945312 6.015625 -16.300781 6.015625 -14.46875 C 6.015625 -12.039062 6.390625 -9.929688 7.140625 -8.140625 C 7.898438 -6.359375 9.035156 -4.976562 10.546875 -4 C 12.054688 -3.03125 13.941406 -2.546875 16.203125 -2.546875 C 17.492188 -2.546875 18.707031 -2.65625 19.84375 -2.875 C 20.988281 -3.09375 22.101562 -3.367188 23.1875 -3.703125 L 23.1875 -0.765625 C 22.132812 -0.367188 21.023438 -0.078125 19.859375 0.109375 C 18.703125 0.296875 17.328125 0.390625 15.734375 0.390625 C 12.796875 0.390625 10.34375 -0.21875 8.375 -1.4375 C 6.40625 -2.65625 4.925781 -4.375 3.9375 -6.59375 C 2.957031 -8.820312 2.46875 -11.453125 2.46875 -14.484375 C 2.46875 -16.671875 2.773438 -18.671875 3.390625 -20.484375 C 4.003906 -22.296875 4.898438 -23.859375 6.078125 -25.171875 C 7.253906 -26.492188 8.703125 -27.515625 10.421875 -28.234375 C 12.140625 -28.953125 14.113281 -29.3125 16.34375 -29.3125 C 17.8125 -29.3125 19.222656 -29.164062 20.578125 -28.875 C 21.929688 -28.59375 23.15625 -28.179688 24.25 -27.640625 L 22.90625 -24.78125 C 21.988281 -25.207031 20.976562 -25.570312 19.875 -25.875 C 18.769531 -26.1875 17.582031 -26.34375 16.3125 -26.34375 Z M 16.3125 -26.34375 "/></g></g></g><g fill="#1a4578" fill-opacity="1"><g transform="translate(278.927279, 274.152697)"><g><path d="M 29.015625 -14.484375 C 29.015625 -12.265625 28.726562 -10.238281 28.15625 -8.40625 C 27.59375 -6.582031 26.753906 -5.015625 25.640625 -3.703125 C 24.535156 -2.390625 23.15625 -1.378906 21.5 -0.671875 C 19.851562 0.0351562 17.945312 0.390625 15.78125 0.390625 C 13.539062 0.390625 11.582031 0.0351562 9.90625 -0.671875 C 8.238281 -1.378906 6.851562 -2.390625 5.75 -3.703125 C 4.65625 -5.023438 3.832031 -6.601562 3.28125 -8.4375 C 2.738281 -10.269531 2.46875 -12.300781 2.46875 -14.53125 C 2.46875 -17.476562 2.953125 -20.066406 3.921875 -22.296875 C 4.898438 -24.523438 6.378906 -26.257812 8.359375 -27.5 C 10.347656 -28.738281 12.835938 -29.359375 15.828125 -29.359375 C 18.691406 -29.359375 21.101562 -28.742188 23.0625 -27.515625 C 25.019531 -26.285156 26.5 -24.5625 27.5 -22.34375 C 28.507812 -20.125 29.015625 -17.503906 29.015625 -14.484375 Z M 6.015625 -14.484375 C 6.015625 -12.035156 6.363281 -9.914062 7.0625 -8.125 C 7.757812 -6.332031 8.828125 -4.945312 10.265625 -3.96875 C 11.710938 -3 13.550781 -2.515625 15.78125 -2.515625 C 18.019531 -2.515625 19.851562 -3 21.28125 -3.96875 C 22.707031 -4.945312 23.765625 -6.332031 24.453125 -8.125 C 25.140625 -9.914062 25.484375 -12.035156 25.484375 -14.484375 C 25.484375 -18.210938 24.703125 -21.128906 23.140625 -23.234375 C 21.578125 -25.335938 19.140625 -26.390625 15.828125 -26.390625 C 13.585938 -26.390625 11.742188 -25.90625 10.296875 -24.9375 C 8.847656 -23.976562 7.769531 -22.613281 7.0625 -20.84375 C 6.363281 -19.070312 6.015625 -16.953125 6.015625 -14.484375 Z M 6.015625 -14.484375 "/></g></g></g><g fill="#1a4578" fill-opacity="1"><g transform="translate(310.411243, 274.152697)"><g><path d="M 16.671875 0 L 6.953125 -25.578125 L 6.796875 -25.578125 C 6.847656 -25.035156 6.894531 -24.375 6.9375 -23.59375 C 6.976562 -22.820312 7.007812 -21.976562 7.03125 -21.0625 C 7.0625 -20.144531 7.078125 -19.210938 7.078125 -18.265625 L 7.078125 0 L 3.953125 0 L 3.953125 -28.90625 L 8.9375 -28.90625 L 18.09375 -4.859375 L 18.21875 -4.859375 L 27.515625 -28.90625 L 32.453125 -28.90625 L 32.453125 0 L 29.140625 0 L 29.140625 -18.5 C 29.140625 -19.351562 29.148438 -20.210938 29.171875 -21.078125 C 29.203125 -21.941406 29.234375 -22.757812 29.265625 -23.53125 C 29.304688 -24.300781 29.347656 -24.972656 29.390625 -25.546875 L 29.234375 -25.546875 L 19.40625 0 Z M 16.671875 0 "/></g></g></g><g fill="#1a4578" fill-opacity="1"><g transform="translate(346.81643, 274.152697)"><g><path d="M 16.671875 0 L 6.953125 -25.578125 L 6.796875 -25.578125 C 6.847656 -25.035156 6.894531 -24.375 6.9375 -23.59375 C 6.976562 -22.820312 7.007812 -21.976562 7.03125 -21.0625 C 7.0625 -20.144531 7.078125 -19.210938 7.078125 -18.265625 L 7.078125 0 L 3.953125 0 L 3.953125 -28.90625 L 8.9375 -28.90625 L 18.09375 -4.859375 L 18.21875 -4.859375 L 27.515625 -28.90625 L 32.453125 -28.90625 L 32.453125 0 L 29.140625 0 L 29.140625 -18.5 C 29.140625 -19.351562 29.148438 -20.210938 29.171875 -21.078125 C 29.203125 -21.941406 29.234375 -22.757812 29.265625 -23.53125 C 29.304688 -24.300781 29.347656 -24.972656 29.390625 -25.546875 L 29.234375 -25.546875 L 19.40625 0 Z M 16.671875 0 "/></g></g></g><g fill="#1a4578" fill-opacity="1"><g transform="translate(383.221618, 274.152697)"><g><path d="M 20.046875 0 L 3.953125 0 L 3.953125 -28.90625 L 20.046875 -28.90625 L 20.046875 -25.9375 L 7.3125 -25.9375 L 7.3125 -16.578125 L 19.3125 -16.578125 L 19.3125 -13.65625 L 7.3125 -13.65625 L 7.3125 -2.96875 L 20.046875 -2.96875 Z M 20.046875 0 "/></g></g></g><g fill="#1a4578" fill-opacity="1"><g transform="translate(405.712988, 274.152697)"><g><path d="M 11.765625 -28.90625 C 14.128906 -28.90625 16.085938 -28.609375 17.640625 -28.015625 C 19.191406 -27.429688 20.347656 -26.539062 21.109375 -25.34375 C 21.878906 -24.144531 22.265625 -22.613281 22.265625 -20.75 C 22.265625 -19.226562 21.984375 -17.957031 21.421875 -16.9375 C 20.867188 -15.914062 20.144531 -15.085938 19.25 -14.453125 C 18.351562 -13.816406 17.398438 -13.328125 16.390625 -12.984375 L 24.3125 0 L 20.40625 0 L 13.328125 -12.0625 L 7.3125 -12.0625 L 7.3125 0 L 3.953125 0 L 3.953125 -28.90625 Z M 11.5625 -26 L 7.3125 -26 L 7.3125 -14.90625 L 11.90625 -14.90625 C 14.257812 -14.90625 15.992188 -15.382812 17.109375 -16.34375 C 18.222656 -17.3125 18.78125 -18.726562 18.78125 -20.59375 C 18.78125 -22.5625 18.1875 -23.953125 17 -24.765625 C 15.820312 -25.585938 14.007812 -26 11.5625 -26 Z M 11.5625 -26 "/></g></g></g><g fill="#1a4578" fill-opacity="1"><g transform="translate(430.694614, 274.152697)"><g><path d="M 16.3125 -26.34375 C 14.71875 -26.34375 13.28125 -26.066406 12 -25.515625 C 10.726562 -24.972656 9.648438 -24.1875 8.765625 -23.15625 C 7.878906 -22.125 7.195312 -20.875 6.71875 -19.40625 C 6.25 -17.945312 6.015625 -16.300781 6.015625 -14.46875 C 6.015625 -12.039062 6.390625 -9.929688 7.140625 -8.140625 C 7.898438 -6.359375 9.035156 -4.976562 10.546875 -4 C 12.054688 -3.03125 13.941406 -2.546875 16.203125 -2.546875 C 17.492188 -2.546875 18.707031 -2.65625 19.84375 -2.875 C 20.988281 -3.09375 22.101562 -3.367188 23.1875 -3.703125 L 23.1875 -0.765625 C 22.132812 -0.367188 21.023438 -0.078125 19.859375 0.109375 C 18.703125 0.296875 17.328125 0.390625 15.734375 0.390625 C 12.796875 0.390625 10.34375 -0.21875 8.375 -1.4375 C 6.40625 -2.65625 4.925781 -4.375 3.9375 -6.59375 C 2.957031 -8.820312 2.46875 -11.453125 2.46875 -14.484375 C 2.46875 -16.671875 2.773438 -18.671875 3.390625 -20.484375 C 4.003906 -22.296875 4.898438 -23.859375 6.078125 -25.171875 C 7.253906 -26.492188 8.703125 -27.515625 10.421875 -28.234375 C 12.140625 -28.953125 14.113281 -29.3125 16.34375 -29.3125 C 17.8125 -29.3125 19.222656 -29.164062 20.578125 -28.875 C 21.929688 -28.59375 23.15625 -28.179688 24.25 -27.640625 L 22.90625 -24.78125 C 21.988281 -25.207031 20.976562 -25.570312 19.875 -25.875 C 18.769531 -26.1875 17.582031 -26.34375 16.3125 -26.34375 Z M 16.3125 -26.34375 "/></g></g></g><g fill="#1a4578" fill-opacity="1"><g transform="translate(456.190093, 274.152697)"><g><path d="M 3.953125 0 L 3.953125 -28.90625 L 7.3125 -28.90625 L 7.3125 0 Z M 3.953125 0 "/></g></g></g><g fill="#1a4578" fill-opacity="1"><g transform="translate(467.495069, 274.152697)"><g><path d="M 22.078125 0 L 18.515625 -9.171875 L 6.9375 -9.171875 L 3.40625 0 L 0 0 L 11.3125 -29.015625 L 14.328125 -29.015625 L 25.5625 0 Z M 17.515625 -12.15625 L 14.140625 -21.265625 C 14.054688 -21.503906 13.925781 -21.894531 13.75 -22.4375 C 13.570312 -22.976562 13.390625 -23.535156 13.203125 -24.109375 C 13.015625 -24.691406 12.863281 -25.160156 12.75 -25.515625 C 12.613281 -24.972656 12.46875 -24.4375 12.3125 -23.90625 C 12.164062 -23.375 12.019531 -22.878906 11.875 -22.421875 C 11.726562 -21.972656 11.601562 -21.585938 11.5 -21.265625 L 8.0625 -12.15625 Z M 17.515625 -12.15625 "/></g></g></g><g fill="#1a4578" fill-opacity="1"><g transform="translate(493.089367, 274.152697)"><g><path d="M 3.953125 0 L 3.953125 -28.90625 L 7.3125 -28.90625 L 7.3125 -3 L 20.140625 -3 L 20.140625 0 Z M 3.953125 0 "/></g></g></g><g fill="#1a4578" fill-opacity="1"><g transform="translate(514.220835, 274.152697)"><g/></g></g></svg>