<svg width="1440" height="800" viewBox="0 0 1440 800" fill="none" xmlns="http://www.w3.org/2000/svg">
  <rect width="1440" height="800" fill="#0A2647"/>
  <circle cx="720" cy="400" r="300" fill="#091E38"/>
  <circle cx="720" cy="400" r="280" stroke="#D4AF37" stroke-width="2" stroke-dasharray="20 10"/>
  <g opacity="0.6">
    <circle cx="720" cy="400" r="260" fill="none" stroke="#D4AF37" stroke-width="1"/>
    <circle cx="720" cy="400" r="240" fill="none" stroke="#D4AF37" stroke-width="1"/>
    <circle cx="720" cy="400" r="220" fill="none" stroke="#D4AF37" stroke-width="1"/>
  </g>
  <g>
    <circle cx="720" cy="100" r="4" fill="#D4AF37"/>
    <circle cx="870" cy="130" r="4" fill="#D4AF37"/>
    <circle cx="990" cy="220" r="4" fill="#D4AF37"/>
    <circle cx="1060" cy="350" r="4" fill="#D4AF37"/>
    <circle cx="1060" cy="450" r="4" fill="#D4AF37"/>
    <circle cx="990" cy="580" r="4" fill="#D4AF37"/>
    <circle cx="870" cy="670" r="4" fill="#D4AF37"/>
    <circle cx="720" cy="700" r="4" fill="#D4AF37"/>
    <circle cx="570" cy="670" r="4" fill="#D4AF37"/>
    <circle cx="450" cy="580" r="4" fill="#D4AF37"/>
    <circle cx="380" cy="450" r="4" fill="#D4AF37"/>
    <circle cx="380" cy="350" r="4" fill="#D4AF37"/>
    <circle cx="450" cy="220" r="4" fill="#D4AF37"/>
    <circle cx="570" cy="130" r="4" fill="#D4AF37"/>
  </g>
  <path d="M0 0H400C620.914 0 800 179.086 800 400C800 620.914 620.914 800 400 800H0V0Z" fill="#061425" fill-opacity="0.5"/>
  <path d="M1440 800H1040C819.086 800 640 620.914 640 400C640 179.086 819.086 0 1040 0H1440V800Z" fill="#061425" fill-opacity="0.5"/>
</svg>