<svg xmlns="http://www.w3.org/2000/svg" xmlns:xlink="http://www.w3.org/1999/xlink" width="1024" zoomAndPan="magnify" viewBox="0 0 768 374.999991" height="500" preserveAspectRatio="xMidYMid meet" version="1.0"><defs><g/><clipPath id="1549910923"><path d="M 280.050781 37.5 L 487.800781 37.5 L 487.800781 187.5 L 280.050781 187.5 Z M 280.050781 37.5 " clip-rule="nonzero"/></clipPath><clipPath id="0d93a783c6"><path d="M 312 167 L 333 167 L 333 187.5 L 312 187.5 Z M 312 167 " clip-rule="nonzero"/></clipPath><clipPath id="a30f24e1c1"><path d="M 336 167 L 358 167 L 358 187.5 L 336 187.5 Z M 336 167 " clip-rule="nonzero"/></clipPath><clipPath id="6fff01fd94"><path d="M 361 167 L 382 167 L 382 187.5 L 361 187.5 Z M 361 167 " clip-rule="nonzero"/></clipPath><clipPath id="0b70e12e5f"><path d="M 386 167 L 407 167 L 407 187.5 L 386 187.5 Z M 386 167 " clip-rule="nonzero"/></clipPath><clipPath id="597eec1546"><path d="M 410 167 L 432 167 L 432 187.5 L 410 187.5 Z M 410 167 " clip-rule="nonzero"/></clipPath><clipPath id="76f66b36b8"><path d="M 435 167 L 456 167 L 456 187.5 L 435 187.5 Z M 435 167 " clip-rule="nonzero"/></clipPath></defs><rect x="-76.8" width="921.6" fill="#ffffff" y="-37.499999" height="449.999989" fill-opacity="1"/><rect x="-76.8" width="921.6" fill="#f4f5f7" y="-37.499999" height="449.999989" fill-opacity="1"/><g clip-path="url(#1549910923)"><path fill="#1a4578" d="M 403.433594 72.195312 L 394.730469 72.195312 L 394.730469 65.402344 L 403.433594 65.402344 Z M 403.433594 80.128906 L 394.730469 80.128906 L 394.730469 73.773438 L 403.433594 73.773438 Z M 393.152344 72.195312 L 384.789062 72.195312 L 384.789062 65.402344 L 393.152344 65.402344 Z M 393.152344 80.128906 L 384.789062 80.128906 L 384.789062 73.773438 L 393.152344 73.773438 Z M 383.214844 72.195312 L 374.851562 72.195312 L 374.851562 65.402344 L 383.214844 65.402344 Z M 383.214844 80.128906 L 374.851562 80.128906 L 374.851562 73.773438 L 383.214844 73.773438 Z M 373.273438 72.195312 L 364.515625 72.195312 L 364.515625 65.402344 L 373.273438 65.402344 Z M 373.273438 80.128906 L 364.515625 80.128906 L 364.515625 73.773438 L 373.273438 73.773438 Z M 384 37.5 L 280.074219 87.953125 L 280.074219 187.5 L 307.320312 187.5 L 307.320312 90.304688 L 460.683594 90.304688 L 460.683594 187.5 L 487.929688 187.5 L 487.929688 87.953125 L 384 37.5 " fill-opacity="1" fill-rule="nonzero"/></g><path fill="#1a4578" d="M 312.183594 114.601562 L 332.535156 114.601562 L 332.535156 94.253906 L 312.183594 94.253906 L 312.183594 114.601562 " fill-opacity="1" fill-rule="nonzero"/><path fill="#1a4578" d="M 336.839844 114.601562 L 357.191406 114.601562 L 357.191406 94.253906 L 336.839844 94.253906 L 336.839844 114.601562 " fill-opacity="1" fill-rule="nonzero"/><path fill="#1a4578" d="M 312.183594 138.902344 L 332.535156 138.902344 L 332.535156 118.550781 L 312.183594 118.550781 L 312.183594 138.902344 " fill-opacity="1" fill-rule="nonzero"/><path fill="#1a4578" d="M 336.839844 138.902344 L 357.191406 138.902344 L 357.191406 118.550781 L 336.839844 118.550781 L 336.839844 138.902344 " fill-opacity="1" fill-rule="nonzero"/><path fill="#1a4578" d="M 361.5 138.902344 L 381.847656 138.902344 L 381.847656 118.550781 L 361.5 118.550781 L 361.5 138.902344 " fill-opacity="1" fill-rule="nonzero"/><path fill="#1a4578" d="M 312.183594 163.199219 L 332.535156 163.199219 L 332.535156 142.847656 L 312.183594 142.847656 L 312.183594 163.199219 " fill-opacity="1" fill-rule="nonzero"/><path fill="#1a4578" d="M 336.839844 163.199219 L 357.191406 163.199219 L 357.191406 142.847656 L 336.839844 142.847656 L 336.839844 163.199219 " fill-opacity="1" fill-rule="nonzero"/><path fill="#1a4578" d="M 361.5 163.199219 L 381.847656 163.199219 L 381.847656 142.847656 L 361.5 142.847656 L 361.5 163.199219 " fill-opacity="1" fill-rule="nonzero"/><path fill="#1a4578" d="M 386.15625 163.199219 L 406.507812 163.199219 L 406.507812 142.847656 L 386.15625 142.847656 L 386.15625 163.199219 " fill-opacity="1" fill-rule="nonzero"/><g clip-path="url(#0d93a783c6)"><path fill="#1a4578" d="M 312.183594 187.5 L 332.535156 187.5 L 332.535156 167.148438 L 312.183594 167.148438 L 312.183594 187.5 " fill-opacity="1" fill-rule="nonzero"/></g><g clip-path="url(#a30f24e1c1)"><path fill="#1a4578" d="M 336.839844 187.5 L 357.191406 187.5 L 357.191406 167.148438 L 336.839844 167.148438 L 336.839844 187.5 " fill-opacity="1" fill-rule="nonzero"/></g><g clip-path="url(#6fff01fd94)"><path fill="#1a4578" d="M 361.5 187.5 L 381.847656 187.5 L 381.847656 167.148438 L 361.5 167.148438 L 361.5 187.5 " fill-opacity="1" fill-rule="nonzero"/></g><g clip-path="url(#0b70e12e5f)"><path fill="#1a4578" d="M 386.15625 187.5 L 406.507812 187.5 L 406.507812 167.148438 L 386.15625 167.148438 L 386.15625 187.5 " fill-opacity="1" fill-rule="nonzero"/></g><g clip-path="url(#597eec1546)"><path fill="#1a4578" d="M 410.8125 187.5 L 431.164062 187.5 L 431.164062 167.148438 L 410.8125 167.148438 L 410.8125 187.5 " fill-opacity="1" fill-rule="nonzero"/></g><g clip-path="url(#76f66b36b8)"><path fill="#1a4578" d="M 435.46875 167.148438 L 435.46875 187.5 L 455.820312 187.5 L 455.820312 167.148438 L 435.46875 167.148438 " fill-opacity="1" fill-rule="nonzero"/></g><g fill="#1a4578" fill-opacity="1"><g transform="translate(269.612598, 287.810136)"><g><path d="M 3.953125 0 L 3.953125 -28.90625 L 7.3125 -28.90625 L 7.3125 0 Z M 3.953125 0 "/></g></g></g><g fill="#1a4578" fill-opacity="1"><g transform="translate(280.917575, 287.810136)"><g><path d="M 26.546875 0 L 22.671875 0 L 6.921875 -24.28125 L 6.765625 -24.28125 C 6.796875 -23.632812 6.835938 -22.894531 6.890625 -22.0625 C 6.953125 -21.238281 7 -20.363281 7.03125 -19.4375 C 7.0625 -18.507812 7.078125 -17.566406 7.078125 -16.609375 L 7.078125 0 L 3.953125 0 L 3.953125 -28.90625 L 7.8125 -28.90625 L 23.5 -4.703125 L 23.640625 -4.703125 C 23.617188 -5.160156 23.585938 -5.816406 23.546875 -6.671875 C 23.503906 -7.523438 23.46875 -8.441406 23.4375 -9.421875 C 23.40625 -10.398438 23.390625 -11.3125 23.390625 -12.15625 L 23.390625 -28.90625 L 26.546875 -28.90625 Z M 26.546875 0 "/></g></g></g><g fill="#1a4578" fill-opacity="1"><g transform="translate(311.393578, 287.810136)"><g><path d="M 26.90625 -14.734375 C 26.90625 -11.472656 26.3125 -8.75 25.125 -6.5625 C 23.9375 -4.382812 22.21875 -2.742188 19.96875 -1.640625 C 17.726562 -0.546875 15.003906 0 11.796875 0 L 3.953125 0 L 3.953125 -28.90625 L 12.671875 -28.90625 C 15.609375 -28.90625 18.132812 -28.363281 20.25 -27.28125 C 22.375 -26.207031 24.015625 -24.617188 25.171875 -22.515625 C 26.328125 -20.421875 26.90625 -17.828125 26.90625 -14.734375 Z M 23.359375 -14.609375 C 23.359375 -17.203125 22.925781 -19.34375 22.0625 -21.03125 C 21.207031 -22.71875 19.945312 -23.972656 18.28125 -24.796875 C 16.613281 -25.617188 14.570312 -26.03125 12.15625 -26.03125 L 7.3125 -26.03125 L 7.3125 -2.890625 L 11.40625 -2.890625 C 15.382812 -2.890625 18.367188 -3.867188 20.359375 -5.828125 C 22.359375 -7.796875 23.359375 -10.722656 23.359375 -14.609375 Z M 23.359375 -14.609375 "/></g></g></g><g fill="#1a4578" fill-opacity="1"><g transform="translate(340.762801, 287.810136)"><g><path d="M 25.8125 -28.90625 L 25.8125 -10.203125 C 25.8125 -8.160156 25.398438 -6.34375 24.578125 -4.75 C 23.753906 -3.15625 22.507812 -1.898438 20.84375 -0.984375 C 19.1875 -0.0664062 17.109375 0.390625 14.609375 0.390625 C 11.035156 0.390625 8.316406 -0.578125 6.453125 -2.515625 C 4.585938 -4.453125 3.65625 -7.039062 3.65625 -10.28125 L 3.65625 -28.90625 L 7.03125 -28.90625 L 7.03125 -10.1875 C 7.03125 -7.726562 7.679688 -5.832031 8.984375 -4.5 C 10.285156 -3.175781 12.226562 -2.515625 14.8125 -2.515625 C 16.570312 -2.515625 18.015625 -2.832031 19.140625 -3.46875 C 20.265625 -4.101562 21.097656 -5 21.640625 -6.15625 C 22.191406 -7.3125 22.46875 -8.644531 22.46875 -10.15625 L 22.46875 -28.90625 Z M 25.8125 -28.90625 "/></g></g></g><g fill="#1a4578" fill-opacity="1"><g transform="translate(370.270371, 287.810136)"><g><path d="M 20.265625 -7.6875 C 20.265625 -5.976562 19.835938 -4.519531 18.984375 -3.3125 C 18.140625 -2.101562 16.953125 -1.179688 15.421875 -0.546875 C 13.890625 0.078125 12.085938 0.390625 10.015625 0.390625 C 8.921875 0.390625 7.882812 0.335938 6.90625 0.234375 C 5.9375 0.128906 5.039062 -0.0195312 4.21875 -0.21875 C 3.40625 -0.414062 2.691406 -0.660156 2.078125 -0.953125 L 2.078125 -4.171875 C 3.066406 -3.765625 4.269531 -3.382812 5.6875 -3.03125 C 7.113281 -2.6875 8.601562 -2.515625 10.15625 -2.515625 C 11.601562 -2.515625 12.828125 -2.707031 13.828125 -3.09375 C 14.835938 -3.476562 15.601562 -4.035156 16.125 -4.765625 C 16.644531 -5.503906 16.90625 -6.382812 16.90625 -7.40625 C 16.90625 -8.394531 16.6875 -9.222656 16.25 -9.890625 C 15.8125 -10.554688 15.085938 -11.160156 14.078125 -11.703125 C 13.078125 -12.253906 11.707031 -12.84375 9.96875 -13.46875 C 8.738281 -13.894531 7.65625 -14.367188 6.71875 -14.890625 C 5.78125 -15.410156 4.992188 -16 4.359375 -16.65625 C 3.734375 -17.320312 3.257812 -18.085938 2.9375 -18.953125 C 2.613281 -19.828125 2.453125 -20.820312 2.453125 -21.9375 C 2.453125 -23.476562 2.84375 -24.800781 3.625 -25.90625 C 4.40625 -27.007812 5.488281 -27.851562 6.875 -28.4375 C 8.269531 -29.019531 9.875 -29.3125 11.6875 -29.3125 C 13.226562 -29.3125 14.648438 -29.164062 15.953125 -28.875 C 17.265625 -28.59375 18.46875 -28.207031 19.5625 -27.71875 L 18.515625 -24.828125 C 17.472656 -25.265625 16.367188 -25.625 15.203125 -25.90625 C 14.046875 -26.195312 12.847656 -26.34375 11.609375 -26.34375 C 10.367188 -26.34375 9.320312 -26.160156 8.46875 -25.796875 C 7.625 -25.441406 6.972656 -24.929688 6.515625 -24.265625 C 6.066406 -23.609375 5.84375 -22.828125 5.84375 -21.921875 C 5.84375 -20.910156 6.054688 -20.066406 6.484375 -19.390625 C 6.921875 -18.722656 7.609375 -18.128906 8.546875 -17.609375 C 9.492188 -17.085938 10.742188 -16.539062 12.296875 -15.96875 C 13.992188 -15.351562 15.4375 -14.695312 16.625 -14 C 17.8125 -13.3125 18.710938 -12.46875 19.328125 -11.46875 C 19.953125 -10.476562 20.265625 -9.21875 20.265625 -7.6875 Z M 20.265625 -7.6875 "/></g></g></g><g fill="#1a4578" fill-opacity="1"><g transform="translate(392.465282, 287.810136)"><g><path d="M 12.828125 0 L 9.453125 0 L 9.453125 -25.9375 L 0.359375 -25.9375 L 0.359375 -28.90625 L 21.890625 -28.90625 L 21.890625 -25.9375 L 12.828125 -25.9375 Z M 12.828125 0 "/></g></g></g><g fill="#1a4578" fill-opacity="1"><g transform="translate(414.759012, 287.810136)"><g><path d="M 11.765625 -28.90625 C 14.128906 -28.90625 16.085938 -28.609375 17.640625 -28.015625 C 19.191406 -27.429688 20.347656 -26.539062 21.109375 -25.34375 C 21.878906 -24.144531 22.265625 -22.613281 22.265625 -20.75 C 22.265625 -19.226562 21.984375 -17.957031 21.421875 -16.9375 C 20.867188 -15.914062 20.144531 -15.085938 19.25 -14.453125 C 18.351562 -13.816406 17.398438 -13.328125 16.390625 -12.984375 L 24.3125 0 L 20.40625 0 L 13.328125 -12.0625 L 7.3125 -12.0625 L 7.3125 0 L 3.953125 0 L 3.953125 -28.90625 Z M 11.5625 -26 L 7.3125 -26 L 7.3125 -14.90625 L 11.90625 -14.90625 C 14.257812 -14.90625 15.992188 -15.382812 17.109375 -16.34375 C 18.222656 -17.3125 18.78125 -18.726562 18.78125 -20.59375 C 18.78125 -22.5625 18.1875 -23.953125 17 -24.765625 C 15.820312 -25.585938 14.007812 -26 11.5625 -26 Z M 11.5625 -26 "/></g></g></g><g fill="#1a4578" fill-opacity="1"><g transform="translate(439.740639, 287.810136)"><g><path d="M 3.953125 0 L 3.953125 -28.90625 L 7.3125 -28.90625 L 7.3125 0 Z M 3.953125 0 "/></g></g></g><g fill="#1a4578" fill-opacity="1"><g transform="translate(451.045616, 287.810136)"><g><path d="M 22.078125 0 L 18.515625 -9.171875 L 6.9375 -9.171875 L 3.40625 0 L 0 0 L 11.3125 -29.015625 L 14.328125 -29.015625 L 25.5625 0 Z M 17.515625 -12.15625 L 14.140625 -21.265625 C 14.054688 -21.503906 13.925781 -21.894531 13.75 -22.4375 C 13.570312 -22.976562 13.390625 -23.535156 13.203125 -24.109375 C 13.015625 -24.691406 12.863281 -25.160156 12.75 -25.515625 C 12.613281 -24.972656 12.46875 -24.4375 12.3125 -23.90625 C 12.164062 -23.375 12.019531 -22.878906 11.875 -22.421875 C 11.726562 -21.972656 11.601562 -21.585938 11.5 -21.265625 L 8.0625 -12.15625 Z M 17.515625 -12.15625 "/></g></g></g><g fill="#1a4578" fill-opacity="1"><g transform="translate(476.639913, 287.810136)"><g><path d="M 3.953125 0 L 3.953125 -28.90625 L 7.3125 -28.90625 L 7.3125 -3 L 20.140625 -3 L 20.140625 0 Z M 3.953125 0 "/></g></g></g></svg>