<svg xmlns="http://www.w3.org/2000/svg" xmlns:xlink="http://www.w3.org/1999/xlink" width="1024" zoomAndPan="magnify" viewBox="0 0 768 374.999991" height="500" preserveAspectRatio="xMidYMid meet" version="1.0"><defs><g/><clipPath id="e6a233343a"><path d="M 319 38 L 449 38 L 449 187.5 L 319 187.5 Z M 319 38 " clip-rule="nonzero"/></clipPath></defs><rect x="-76.8" width="921.6" fill="#ffffff" y="-37.499999" height="449.999989" fill-opacity="1"/><rect x="-76.8" width="921.6" fill="#f4f5f7" y="-37.499999" height="449.999989" fill-opacity="1"/><g clip-path="url(#e6a233343a)"><path fill="#1a4578" d="M 420.09375 187.242188 L 332.175781 186.582031 C 327.941406 186.546875 327.621094 185.015625 327.730469 181.996094 L 329.128906 144.789062 C 329.386719 137.933594 323.503906 139.214844 323.453125 133.089844 C 323.414062 129.441406 327.441406 130.082031 327.5 123.367188 C 327.5625 116.652344 326.902344 112.933594 324.984375 108.980469 C 323.066406 105.023438 325.402344 101.007812 324.5625 94.773438 C 323.722656 88.539062 322.882812 79.605469 320.246094 67.496094 C 317.609375 55.386719 321.203125 57.484375 320.125 52.265625 C 319.042969 47.050781 322.34375 46.335938 322.34375 46.335938 L 351.539062 47.511719 C 354.335938 47.632812 354.996094 45.960938 355.035156 44.414062 L 355.117188 41.230469 C 355.164062 39.3125 355.664062 37.960938 358.113281 38.636719 C 360.878906 39.398438 361.261719 40.234375 361.628906 42.855469 C 361.929688 44.921875 361.898438 47 362.871094 48.730469 C 364.347656 51.359375 362 53.675781 364.277344 54.515625 C 366.554688 55.355469 369.351562 55.714844 372.03125 56.578125 C 377.015625 58.175781 378.003906 60.214844 380.464844 60.214844 C 384.980469 60.214844 385.960938 56.59375 389.21875 57.164062 C 391.707031 57.601562 398.058594 58.652344 400.261719 62.550781 C 402.464844 66.445312 404.675781 62.378906 409.332031 65.6875 C 414 68.996094 419.003906 70.941406 425.359375 67.894531 C 431.714844 64.835938 428.914062 71.113281 436.890625 70.433594 C 442.765625 69.933594 442.125 71.449219 444.921875 71.449219 C 450.425781 71.449219 449.578125 75.566406 445.390625 76.546875 C 440.105469 77.777344 434.613281 79.785156 431.753906 81.761719 C 427.675781 84.582031 416.546875 96.796875 412.390625 99.769531 C 410.429688 101.164062 408.625 103.144531 407.023438 104.582031 C 403.988281 107.324219 404.25 109.039062 404.25 112.90625 L 404.25 120.496094 C 404.25 121.789062 404.1875 123.058594 402.410156 123.675781 C 401.257812 124.085938 394.328125 127.535156 394.074219 131.480469 C 393.824219 135.417969 397.851562 135.117188 397.761719 138.082031 C 397.683594 141.050781 396.15625 141.390625 396.066406 147.078125 C 395.984375 152.75 394.074219 155.261719 397.550781 157.375 C 401.027344 159.492188 409.839844 165.300781 412.808594 169.792969 C 415.777344 174.289062 422.21875 174.917969 423.027344 178.269531 L 423.957031 184.414062 C 424.28125 186.558594 423.402344 187.261719 420.09375 187.242188 Z M 420.09375 187.242188 " fill-opacity="1" fill-rule="nonzero"/></g><g fill="#1a4578" fill-opacity="1"><g transform="translate(265.618996, 276.922717)"><g><path d="M 16.671875 0 L 6.953125 -25.578125 L 6.796875 -25.578125 C 6.847656 -25.035156 6.894531 -24.375 6.9375 -23.59375 C 6.976562 -22.820312 7.007812 -21.976562 7.03125 -21.0625 C 7.0625 -20.144531 7.078125 -19.210938 7.078125 -18.265625 L 7.078125 0 L 3.953125 0 L 3.953125 -28.90625 L 8.9375 -28.90625 L 18.09375 -4.859375 L 18.21875 -4.859375 L 27.515625 -28.90625 L 32.453125 -28.90625 L 32.453125 0 L 29.140625 0 L 29.140625 -18.5 C 29.140625 -19.351562 29.148438 -20.210938 29.171875 -21.078125 C 29.203125 -21.941406 29.234375 -22.757812 29.265625 -23.53125 C 29.304688 -24.300781 29.347656 -24.972656 29.390625 -25.546875 L 29.234375 -25.546875 L 19.40625 0 Z M 16.671875 0 "/></g></g></g><g fill="#1a4578" fill-opacity="1"><g transform="translate(302.024183, 276.922717)"><g><path d="M 3.953125 0 L 3.953125 -28.90625 L 7.3125 -28.90625 L 7.3125 0 Z M 3.953125 0 "/></g></g></g><g fill="#1a4578" fill-opacity="1"><g transform="translate(313.32916, 276.922717)"><g><path d="M 26.546875 0 L 22.671875 0 L 6.921875 -24.28125 L 6.765625 -24.28125 C 6.796875 -23.632812 6.835938 -22.894531 6.890625 -22.0625 C 6.953125 -21.238281 7 -20.363281 7.03125 -19.4375 C 7.0625 -18.507812 7.078125 -17.566406 7.078125 -16.609375 L 7.078125 0 L 3.953125 0 L 3.953125 -28.90625 L 7.8125 -28.90625 L 23.5 -4.703125 L 23.640625 -4.703125 C 23.617188 -5.160156 23.585938 -5.816406 23.546875 -6.671875 C 23.503906 -7.523438 23.46875 -8.441406 23.4375 -9.421875 C 23.40625 -10.398438 23.390625 -11.3125 23.390625 -12.15625 L 23.390625 -28.90625 L 26.546875 -28.90625 Z M 26.546875 0 "/></g></g></g><g fill="#1a4578" fill-opacity="1"><g transform="translate(343.805163, 276.922717)"><g><path d="M 26.546875 0 L 22.671875 0 L 6.921875 -24.28125 L 6.765625 -24.28125 C 6.796875 -23.632812 6.835938 -22.894531 6.890625 -22.0625 C 6.953125 -21.238281 7 -20.363281 7.03125 -19.4375 C 7.0625 -18.507812 7.078125 -17.566406 7.078125 -16.609375 L 7.078125 0 L 3.953125 0 L 3.953125 -28.90625 L 7.8125 -28.90625 L 23.5 -4.703125 L 23.640625 -4.703125 C 23.617188 -5.160156 23.585938 -5.816406 23.546875 -6.671875 C 23.503906 -7.523438 23.46875 -8.441406 23.4375 -9.421875 C 23.40625 -10.398438 23.390625 -11.3125 23.390625 -12.15625 L 23.390625 -28.90625 L 26.546875 -28.90625 Z M 26.546875 0 "/></g></g></g><g fill="#1a4578" fill-opacity="1"><g transform="translate(374.281167, 276.922717)"><g><path d="M 20.046875 0 L 3.953125 0 L 3.953125 -28.90625 L 20.046875 -28.90625 L 20.046875 -25.9375 L 7.3125 -25.9375 L 7.3125 -16.578125 L 19.3125 -16.578125 L 19.3125 -13.65625 L 7.3125 -13.65625 L 7.3125 -2.96875 L 20.046875 -2.96875 Z M 20.046875 0 "/></g></g></g><g fill="#1a4578" fill-opacity="1"><g transform="translate(396.772537, 276.922717)"><g><path d="M 20.265625 -7.6875 C 20.265625 -5.976562 19.835938 -4.519531 18.984375 -3.3125 C 18.140625 -2.101562 16.953125 -1.179688 15.421875 -0.546875 C 13.890625 0.078125 12.085938 0.390625 10.015625 0.390625 C 8.921875 0.390625 7.882812 0.335938 6.90625 0.234375 C 5.9375 0.128906 5.039062 -0.0195312 4.21875 -0.21875 C 3.40625 -0.414062 2.691406 -0.660156 2.078125 -0.953125 L 2.078125 -4.171875 C 3.066406 -3.765625 4.269531 -3.382812 5.6875 -3.03125 C 7.113281 -2.6875 8.601562 -2.515625 10.15625 -2.515625 C 11.601562 -2.515625 12.828125 -2.707031 13.828125 -3.09375 C 14.835938 -3.476562 15.601562 -4.035156 16.125 -4.765625 C 16.644531 -5.503906 16.90625 -6.382812 16.90625 -7.40625 C 16.90625 -8.394531 16.6875 -9.222656 16.25 -9.890625 C 15.8125 -10.554688 15.085938 -11.160156 14.078125 -11.703125 C 13.078125 -12.253906 11.707031 -12.84375 9.96875 -13.46875 C 8.738281 -13.894531 7.65625 -14.367188 6.71875 -14.890625 C 5.78125 -15.410156 4.992188 -16 4.359375 -16.65625 C 3.734375 -17.320312 3.257812 -18.085938 2.9375 -18.953125 C 2.613281 -19.828125 2.453125 -20.820312 2.453125 -21.9375 C 2.453125 -23.476562 2.84375 -24.800781 3.625 -25.90625 C 4.40625 -27.007812 5.488281 -27.851562 6.875 -28.4375 C 8.269531 -29.019531 9.875 -29.3125 11.6875 -29.3125 C 13.226562 -29.3125 14.648438 -29.164062 15.953125 -28.875 C 17.265625 -28.59375 18.46875 -28.207031 19.5625 -27.71875 L 18.515625 -24.828125 C 17.472656 -25.265625 16.367188 -25.625 15.203125 -25.90625 C 14.046875 -26.195312 12.847656 -26.34375 11.609375 -26.34375 C 10.367188 -26.34375 9.320312 -26.160156 8.46875 -25.796875 C 7.625 -25.441406 6.972656 -24.929688 6.515625 -24.265625 C 6.066406 -23.609375 5.84375 -22.828125 5.84375 -21.921875 C 5.84375 -20.910156 6.054688 -20.066406 6.484375 -19.390625 C 6.921875 -18.722656 7.609375 -18.128906 8.546875 -17.609375 C 9.492188 -17.085938 10.742188 -16.539062 12.296875 -15.96875 C 13.992188 -15.351562 15.4375 -14.695312 16.625 -14 C 17.8125 -13.3125 18.710938 -12.46875 19.328125 -11.46875 C 19.953125 -10.476562 20.265625 -9.21875 20.265625 -7.6875 Z M 20.265625 -7.6875 "/></g></g></g><g fill="#1a4578" fill-opacity="1"><g transform="translate(418.967447, 276.922717)"><g><path d="M 29.015625 -14.484375 C 29.015625 -12.265625 28.726562 -10.238281 28.15625 -8.40625 C 27.59375 -6.582031 26.753906 -5.015625 25.640625 -3.703125 C 24.535156 -2.390625 23.15625 -1.378906 21.5 -0.671875 C 19.851562 0.0351562 17.945312 0.390625 15.78125 0.390625 C 13.539062 0.390625 11.582031 0.0351562 9.90625 -0.671875 C 8.238281 -1.378906 6.851562 -2.390625 5.75 -3.703125 C 4.65625 -5.023438 3.832031 -6.601562 3.28125 -8.4375 C 2.738281 -10.269531 2.46875 -12.300781 2.46875 -14.53125 C 2.46875 -17.476562 2.953125 -20.066406 3.921875 -22.296875 C 4.898438 -24.523438 6.378906 -26.257812 8.359375 -27.5 C 10.347656 -28.738281 12.835938 -29.359375 15.828125 -29.359375 C 18.691406 -29.359375 21.101562 -28.742188 23.0625 -27.515625 C 25.019531 -26.285156 26.5 -24.5625 27.5 -22.34375 C 28.507812 -20.125 29.015625 -17.503906 29.015625 -14.484375 Z M 6.015625 -14.484375 C 6.015625 -12.035156 6.363281 -9.914062 7.0625 -8.125 C 7.757812 -6.332031 8.828125 -4.945312 10.265625 -3.96875 C 11.710938 -3 13.550781 -2.515625 15.78125 -2.515625 C 18.019531 -2.515625 19.851562 -3 21.28125 -3.96875 C 22.707031 -4.945312 23.765625 -6.332031 24.453125 -8.125 C 25.140625 -9.914062 25.484375 -12.035156 25.484375 -14.484375 C 25.484375 -18.210938 24.703125 -21.128906 23.140625 -23.234375 C 21.578125 -25.335938 19.140625 -26.390625 15.828125 -26.390625 C 13.585938 -26.390625 11.742188 -25.90625 10.296875 -24.9375 C 8.847656 -23.976562 7.769531 -22.613281 7.0625 -20.84375 C 6.363281 -19.070312 6.015625 -16.953125 6.015625 -14.484375 Z M 6.015625 -14.484375 "/></g></g></g><g fill="#1a4578" fill-opacity="1"><g transform="translate(450.451412, 276.922717)"><g><path d="M 12.828125 0 L 9.453125 0 L 9.453125 -25.9375 L 0.359375 -25.9375 L 0.359375 -28.90625 L 21.890625 -28.90625 L 21.890625 -25.9375 L 12.828125 -25.9375 Z M 12.828125 0 "/></g></g></g><g fill="#1a4578" fill-opacity="1"><g transform="translate(472.745142, 276.922717)"><g><path d="M 22.078125 0 L 18.515625 -9.171875 L 6.9375 -9.171875 L 3.40625 0 L 0 0 L 11.3125 -29.015625 L 14.328125 -29.015625 L 25.5625 0 Z M 17.515625 -12.15625 L 14.140625 -21.265625 C 14.054688 -21.503906 13.925781 -21.894531 13.75 -22.4375 C 13.570312 -22.976562 13.390625 -23.535156 13.203125 -24.109375 C 13.015625 -24.691406 12.863281 -25.160156 12.75 -25.515625 C 12.613281 -24.972656 12.46875 -24.4375 12.3125 -23.90625 C 12.164062 -23.375 12.019531 -22.878906 11.875 -22.421875 C 11.726562 -21.972656 11.601562 -21.585938 11.5 -21.265625 L 8.0625 -12.15625 Z M 17.515625 -12.15625 "/></g></g></g><g fill="#1a4578" fill-opacity="1"><g transform="translate(498.34164, 276.922717)"><g/></g></g></svg>